<?xml version="1.0" standalone="no"?>
<!DOCTYPE svg PUBLIC "-//W3C//DTD SVG 20010904//EN"
 "http://www.w3.org/TR/2001/REC-SVG-20010904/DTD/svg10.dtd">
<svg version="1.0" xmlns="http://www.w3.org/2000/svg"
 width="516.000000pt" height="1000.000000pt" viewBox="0 0 516.000000 1000.000000"
 preserveAspectRatio="xMidYMid meet">

<g transform="translate(0.000000,1000.000000) scale(0.100000,-0.100000)"
fill="#000000" stroke="none">
<path d="M3154 7993 c-16 -21 -50 -62 -76 -90 -26 -29 -59 -74 -73 -100 -14
-27 -39 -68 -54 -93 -84 -130 -197 -319 -211 -350 -39 -87 -66 -133 -105 -175
-37 -40 -46 -45 -51 -30 -4 9 3 105 16 211 25 210 25 429 0 459 -28 33 -55 18
-104 -60 -27 -42 -53 -90 -60 -108 -6 -18 -14 -34 -17 -37 -13 -12 -69 -99
-69 -108 0 -6 -4 -12 -9 -14 -20 -7 -131 -227 -153 -302 -6 -22 -17 -48 -25
-57 -7 -8 -13 -21 -13 -27 0 -7 -10 -29 -23 -50 -13 -20 -34 -64 -46 -97 -12
-33 -28 -73 -35 -89 -9 -23 -9 -40 1 -85 7 -31 20 -92 29 -136 17 -84 57 -185
73 -185 5 0 17 -21 27 -47 9 -27 27 -58 40 -70 13 -12 24 -24 24 -27 0 -22
183 -236 202 -236 5 0 33 -14 63 -31 l55 -31 -56 -69 c-57 -72 -83 -121 -128
-249 -14 -41 -30 -80 -34 -86 -5 -9 -33 -8 -107 5 -61 10 -118 13 -145 9 -25
-3 -62 -7 -83 -7 -61 -1 -145 -29 -152 -50 -7 -22 32 -147 68 -217 13 -27 30
-66 36 -86 7 -20 36 -61 64 -90 137 -142 177 -191 177 -222 0 -16 6 -37 14
-45 8 -9 21 -54 29 -101 23 -126 45 -209 72 -266 25 -53 101 -131 154 -159
l33 -17 -21 -22 c-12 -12 -21 -36 -21 -52 0 -16 -5 -45 -11 -64 -6 -19 -13
-69 -15 -110 -2 -41 -11 -115 -20 -165 -16 -93 -22 -185 -28 -415 -2 -74 -7
-200 -10 -280 -4 -94 -3 -138 3 -125 8 17 10 15 10 -15 0 -19 -6 -46 -14 -60
-8 -14 -14 -38 -15 -53 0 -16 -5 -48 -11 -73 -9 -33 -16 -44 -26 -40 -8 4 -23
-4 -33 -16 l-18 -23 -124 19 c-145 21 -161 23 -298 31 -58 3 -114 8 -125 11
-11 3 -28 8 -37 10 -23 7 -44 -32 -28 -51 13 -15 127 -52 275 -89 190 -47 445
-41 453 10 2 10 15 64 30 119 23 90 26 116 23 250 -2 133 1 161 24 250 36 141
67 536 62 808 -1 70 -1 127 0 127 1 0 35 -24 76 -53 106 -76 179 -102 270 -94
71 6 160 30 185 50 7 5 14 8 16 6 4 -4 11 -75 22 -219 3 -36 7 -76 9 -90 8
-44 24 -231 32 -365 13 -213 3 -568 -16 -603 -5 -10 -7 -29 -4 -45 4 -22 9
-26 27 -21 14 3 28 -1 35 -10 8 -9 21 -16 29 -16 26 0 190 -40 291 -71 51 -16
97 -26 102 -23 15 9 10 43 -8 52 -19 10 -191 56 -286 77 -33 7 -64 18 -70 24
-6 6 -14 66 -18 133 -11 177 -21 309 -25 338 -2 14 -6 185 -8 380 -4 340 -11
430 -36 445 -6 3 -10 21 -10 39 0 27 9 41 43 71 103 91 163 174 246 341 l83
163 76 50 c166 109 334 233 374 278 24 26 54 58 67 72 13 13 32 55 43 95 11
39 33 99 49 132 36 77 37 92 2 99 -16 3 -53 13 -83 23 -37 11 -100 17 -190 19
l-135 3 -37 -42 -38 -43 -1 45 c-2 67 -5 80 -29 143 -20 54 -65 117 -99 142
-8 6 -41 24 -73 41 l-60 30 94 29 c92 28 186 72 222 104 10 9 35 41 56 71 42
63 61 140 54 221 -6 62 -49 285 -62 320 -23 62 -23 77 1 83 14 3 28 21 41 51
10 25 28 61 41 79 33 49 79 190 134 411 18 72 52 292 52 334 0 171 -7 187 -67
155 -19 -10 -45 -29 -56 -41 -12 -13 -26 -23 -32 -23 -20 0 -117 -75 -136
-104 -29 -47 -197 -207 -265 -253 -62 -41 -283 -153 -304 -153 -15 0 -13 19
22 190 8 41 21 113 27 160 7 47 16 101 20 120 5 19 11 95 15 169 5 106 4 136
-7 142 -25 17 -46 9 -74 -28z m22 -160 c-4 -43 -8 -94 -10 -113 -2 -19 -11
-78 -20 -130 -10 -52 -20 -108 -23 -125 -2 -16 -8 -39 -13 -50 -5 -11 -14 -45
-20 -75 -7 -30 -16 -71 -21 -90 l-8 -35 -97 -3 c-53 -1 -116 -9 -141 -17 -50
-17 -103 -20 -103 -5 0 15 129 258 164 310 17 25 40 61 50 80 11 19 37 62 58
94 22 33 48 77 59 98 21 42 107 138 122 138 6 0 7 -29 3 -77z m-614 -175 c3
-76 1 -106 -26 -303 -8 -66 -15 -145 -13 -175 2 -68 -28 -124 -71 -133 -15 -3
-56 -28 -92 -56 -36 -28 -71 -51 -79 -51 -8 0 -33 -11 -55 -24 -23 -13 -56
-26 -74 -29 -31 -6 -32 -6 -26 21 4 15 17 50 29 77 12 28 34 79 50 115 80 191
137 304 190 383 24 37 59 95 77 129 36 71 68 118 79 118 5 0 9 -33 11 -72z
m1389 45 c1 -16 3 -41 4 -58 3 -49 -32 -260 -65 -393 -52 -203 -160 -450 -194
-439 -6 2 -20 18 -31 35 -11 17 -26 31 -33 32 -6 0 -22 12 -35 28 -44 54 -123
123 -157 138 -55 24 -148 55 -233 79 -43 11 -78 25 -79 30 0 14 126 77 190 94
101 28 333 214 463 373 31 37 135 107 162 108 4 0 8 -12 8 -27z m-916 -567
c14 -14 59 -34 98 -46 180 -53 231 -73 297 -115 38 -25 78 -57 87 -71 23 -33
43 -53 82 -84 18 -14 37 -34 42 -45 5 -11 13 -27 19 -35 21 -34 39 -92 64
-207 33 -152 34 -232 5 -282 -80 -135 -120 -163 -314 -221 -139 -42 -263 -70
-320 -73 -99 -4 -421 70 -432 100 -3 8 4 21 16 29 22 16 27 40 12 63 -13 20
-44 6 -58 -26 -7 -16 -21 -33 -31 -40 -46 -28 -170 70 -291 232 -117 156 -176
289 -187 425 l-7 79 39 6 c22 4 59 19 84 34 25 14 59 33 75 41 17 8 44 25 61
37 17 13 35 23 41 23 5 0 29 14 53 31 30 22 45 28 53 20 20 -20 44 -12 70 23
42 54 100 82 211 100 54 8 101 18 104 21 3 3 27 5 53 5 37 0 54 -6 74 -24z
m-326 -1155 c192 -64 337 -88 446 -71 48 7 80 8 92 2 10 -6 26 -6 39 -2 30 12
129 -16 172 -47 103 -76 125 -127 130 -303 4 -119 1 -148 -21 -240 -14 -58
-28 -123 -32 -145 -11 -72 -37 -155 -46 -149 -33 20 -95 -56 -105 -130 -5 -36
-3 -46 16 -64 l23 -21 -27 -64 c-67 -159 -236 -367 -297 -367 -22 0 -29 -5
-29 -20 0 -25 -63 -66 -122 -80 -99 -22 -221 -5 -288 41 -95 66 -139 101 -144
115 -3 8 -10 13 -16 9 -14 -9 -85 40 -112 77 -31 43 -55 101 -67 163 -5 28
-16 86 -25 130 -18 85 -15 111 10 101 9 -3 25 4 40 19 19 19 24 34 24 73 0 31
-5 54 -15 62 -13 11 -13 16 0 47 22 53 18 58 -20 24 -37 -32 -65 -40 -65 -18
1 38 31 257 40 287 14 51 42 103 63 118 10 8 17 26 17 45 0 18 6 43 13 57 7
14 24 58 37 98 13 41 30 88 39 106 15 29 131 175 140 176 1 0 42 -13 90 -29z
m1311 -405 c25 -7 46 -20 48 -28 5 -26 -37 -169 -62 -212 -32 -53 -129 -152
-192 -194 -27 -18 -96 -66 -154 -107 -58 -41 -108 -75 -112 -75 -14 0 -9 42
17 155 14 61 32 142 41 180 9 39 18 94 21 123 4 42 10 55 27 62 11 5 43 29 70
55 35 33 55 45 70 42 12 -3 41 -2 66 3 70 12 111 11 160 -4z m-1757 -16 c20
-6 37 -15 37 -20 0 -5 -11 -39 -24 -77 -14 -37 -27 -101 -30 -141 -3 -40 -11
-101 -17 -135 -6 -34 -13 -72 -15 -83 -6 -35 -33 -38 -57 -7 -12 16 -40 48
-62 73 -62 69 -91 111 -105 155 -7 22 -26 66 -41 97 -27 54 -38 121 -21 131 4
3 34 8 67 11 32 4 62 9 65 12 7 9 158 -4 203 -16z m75 -592 c-2 -6 -10 -14
-16 -16 -7 -2 -10 2 -6 12 7 18 28 22 22 4z m786 -943 c3 -8 1 -15 -4 -15 -6
0 -10 7 -10 15 0 8 2 15 4 15 2 0 6 -7 10 -15z m-630 -77 c-15 -216 -23 -270
-37 -265 -16 5 -5 176 19 291 8 36 21 17 18 -26z m-31 -301 c5 -13 -8 -88 -13
-77 -2 3 -4 24 -5 48 -3 40 7 57 18 29z m707 -638 c0 -28 -4 -39 -15 -39 -11
0 -15 11 -15 38 0 21 3 42 6 45 14 13 24 -6 24 -44z m-1044 -175 c183 -29 115
-34 -119 -9 -37 4 -70 12 -73 16 -8 14 78 10 192 -7z"/>
<path d="M2487 6839 c-27 -11 -55 -26 -64 -34 -8 -8 -25 -18 -39 -21 -13 -3
-24 -10 -24 -14 0 -5 -17 -19 -37 -31 -46 -28 -52 -36 -46 -59 8 -32 34 -33
67 -2 41 37 126 91 164 101 l30 9 -44 -78 c-24 -43 -47 -92 -50 -109 -4 -17
-11 -34 -15 -37 -37 -22 39 -219 99 -256 55 -34 107 -19 179 50 33 31 68 71
77 89 9 17 20 34 24 37 17 10 128 -41 163 -74 48 -47 127 -74 207 -72 38 1 72
8 85 17 12 8 29 15 39 15 9 0 35 19 58 42 38 40 40 45 40 108 0 36 -7 103 -14
150 -8 47 -13 86 -11 88 8 8 60 -22 90 -53 38 -38 43 -39 64 -26 11 7 12 17 5
42 -13 45 -114 99 -185 99 -26 0 -51 5 -54 10 -9 15 -45 12 -51 -5 -4 -8 -10
-13 -14 -10 -13 8 -46 -28 -69 -75 -12 -25 -25 -52 -30 -60 -23 -43 -31 -61
-31 -73 0 -7 -17 -30 -39 -51 -33 -33 -45 -38 -85 -38 -73 0 -123 12 -142 33
-9 10 -22 19 -27 19 -6 0 -34 18 -62 39 -52 39 -64 60 -85 136 -14 54 -57 104
-95 109 -17 3 -52 -4 -78 -15z m815 -110 c20 -27 42 -145 40 -213 -4 -107
-176 -165 -286 -97 -42 26 -37 42 17 62 32 11 97 100 97 131 0 8 4 18 8 24 4
5 14 27 21 49 15 42 47 76 70 72 8 -1 23 -14 33 -28z m-702 -21 c0 -29 39
-108 53 -108 7 0 23 -12 36 -25 13 -14 28 -25 35 -25 24 0 36 -22 24 -44 -20
-40 -100 -127 -130 -142 -27 -14 -32 -14 -53 0 -30 20 -66 98 -69 150 -2 43
33 142 67 188 25 34 37 36 37 6z"/>
<path d="M3199 6553 c-23 -60 -8 -113 31 -113 23 0 36 17 49 64 9 33 8 43 -6
58 -25 28 -62 23 -74 -9z"/>
<path d="M2552 6557 c-35 -37 -23 -107 17 -107 43 0 75 78 46 110 -23 26 -37
25 -63 -3z"/>
<path d="M2911 6240 c-73 -18 -97 -17 -138 2 -45 22 -70 -30 -34 -68 20 -23
173 -79 252 -94 72 -14 185 14 218 54 8 9 29 23 47 31 70 29 49 92 -25 73 -29
-7 -51 -6 -91 6 -68 20 -136 19 -229 -4z m228 -60 c12 -6 7 -13 -20 -29 -39
-24 -120 -28 -166 -9 -15 6 -32 12 -38 13 -5 1 -14 3 -20 4 -5 2 19 11 55 21
65 19 156 19 189 0z"/>
</g>
</svg>
