<?xml version="1.0" standalone="no"?>
<!DOCTYPE svg PUBLIC "-//W3C//DTD SVG 20010904//EN"
 "http://www.w3.org/TR/2001/REC-SVG-20010904/DTD/svg10.dtd">
<svg version="1.0" xmlns="http://www.w3.org/2000/svg"
 width="1040.000000pt" height="1016.000000pt" viewBox="0 0 1040.000000 1016.000000"
 preserveAspectRatio="xMidYMid meet">

<g transform="translate(0.000000,1016.000000) scale(0.100000,-0.100000)"
fill="#000000" stroke="none">
<path d="M9764 8091 c-23 -31 -49 -72 -59 -91 -10 -19 -39 -66 -64 -105 -26
-38 -62 -99 -80 -135 -54 -104 -80 -142 -137 -197 -61 -60 -76 -85 -73 -116 4
-28 -6 -51 -118 -277 -134 -267 -177 -345 -248 -440 -34 -47 -78 -110 -96
-140 -18 -30 -63 -93 -100 -140 -76 -97 -152 -221 -240 -395 -55 -110 -91
-168 -126 -203 -7 -8 -18 -22 -23 -33 -6 -10 -29 -28 -51 -40 -32 -16 -46 -32
-65 -76 -14 -31 -29 -75 -34 -97 -20 -98 -56 -166 -216 -410 -84 -129 -241
-434 -291 -566 -23 -61 -49 -119 -110 -247 -14 -29 -31 -57 -39 -64 -8 -6 -14
-17 -14 -23 0 -7 -20 -39 -44 -72 -24 -33 -62 -93 -85 -133 -22 -40 -57 -93
-78 -118 -34 -41 -40 -44 -72 -39 -44 7 -86 -12 -87 -40 -1 -23 -50 -98 -82
-128 -12 -10 -43 -21 -69 -24 -26 -2 -68 -16 -93 -31 -42 -24 -52 -26 -152
-23 -59 1 -156 -2 -215 -8 -116 -13 -234 -13 -298 -2 l-40 7 -6 96 c-6 86 -27
182 -60 274 -6 17 -18 48 -26 70 -36 100 -151 315 -189 352 -8 8 -26 30 -41
50 l-26 34 26 25 c47 44 24 79 -36 56 -35 -13 -32 -14 -41 14 -5 16 9 33 75
90 181 156 350 331 389 405 32 58 195 532 210 609 14 71 38 170 44 187 5 12
14 14 39 8 35 -8 51 -10 182 -25 53 -7 96 -17 107 -26 9 -9 25 -13 36 -10 21
7 46 74 33 90 -5 6 -11 27 -14 47 -3 21 -13 46 -23 58 -10 11 -28 57 -40 102
-21 76 -53 129 -78 129 -6 0 -22 14 -36 31 -17 21 -77 56 -187 110 -159 77
-162 79 -153 104 10 26 7 148 -5 225 -15 90 -77 198 -167 291 -45 48 -99 97
-118 111 -133 92 -283 168 -332 168 -13 0 -70 14 -128 30 -146 43 -224 47
-329 21 -46 -12 -96 -21 -112 -21 -72 0 -254 -91 -326 -163 -28 -29 -56 -57
-63 -64 -39 -38 -60 -66 -60 -79 0 -9 -9 -28 -20 -44 -17 -24 -27 -28 -97 -33
-59 -4 -112 -18 -218 -57 -77 -29 -163 -58 -191 -66 -29 -8 -65 -21 -80 -29
-16 -8 -34 -15 -39 -15 -22 0 -159 -63 -179 -82 -29 -27 -65 -45 -109 -53 -38
-7 -57 -28 -57 -64 0 -24 12 -28 110 -36 78 -7 152 -27 230 -63 43 -20 182
-58 300 -82 30 -6 74 -16 96 -21 l42 -11 -5 -41 c-3 -23 -9 -46 -14 -51 -5 -6
-9 -22 -9 -37 0 -26 -14 -81 -47 -181 -8 -26 -13 -53 -11 -60 3 -7 -1 -28 -9
-45 -7 -18 -15 -51 -18 -73 -3 -22 -12 -66 -20 -97 -22 -82 -19 -197 5 -272
12 -34 29 -103 40 -152 12 -61 27 -101 45 -125 14 -19 31 -49 37 -67 6 -17 32
-61 58 -97 26 -36 59 -91 73 -122 14 -32 30 -63 36 -70 40 -47 71 -93 71 -104
0 -7 -29 -37 -65 -66 -36 -29 -68 -62 -71 -75 -3 -12 -14 -25 -24 -28 -15 -5
-85 -69 -148 -136 -7 -8 -33 -34 -58 -59 -27 -28 -73 -98 -119 -181 l-75 -137
-57 -7 c-32 -4 -73 -13 -93 -20 -94 -36 -158 -47 -251 -42 -52 2 -157 7 -234
10 -77 3 -153 10 -170 17 -62 24 -143 86 -242 186 -125 126 -129 140 -87 252
27 70 34 80 84 114 46 31 64 37 107 38 47 0 58 4 93 37 54 48 64 67 49 96 -7
12 -17 25 -23 29 -19 13 -78 9 -122 -8 -36 -14 -41 -20 -42 -47 0 -21 -9 -38
-24 -50 -13 -9 -34 -27 -48 -39 -14 -11 -41 -31 -60 -43 -34 -21 -53 -48 -63
-90 -3 -11 -14 -44 -26 -74 -25 -66 -19 -98 27 -148 19 -21 68 -76 109 -123
70 -81 90 -97 195 -162 50 -31 182 -51 315 -47 43 2 119 -1 168 -5 71 -7 106
-5 162 8 75 17 173 22 173 9 0 -17 -38 -132 -52 -159 -29 -54 -47 -103 -63
-166 -9 -35 -20 -67 -24 -73 -17 -22 -81 -225 -95 -300 -8 -44 -15 -115 -15
-158 0 -122 -7 -145 -45 -153 -39 -8 -115 -46 -152 -76 -45 -36 -262 -127
-324 -136 -14 -2 -41 -18 -60 -36 -51 -48 -83 -67 -195 -115 -131 -56 -129
-55 -133 -76 -5 -23 86 -193 125 -233 7 -7 13 -17 13 -22 0 -21 31 -15 81 17
30 19 64 39 77 44 13 5 38 20 56 34 18 14 38 25 45 25 10 0 129 57 216 103 43
24 311 137 323 137 5 0 22 -35 37 -78 35 -96 120 -271 169 -344 13 -20 15 -31
7 -46 -6 -11 -13 -34 -16 -53 -3 -19 -17 -57 -31 -86 -13 -28 -24 -57 -24 -64
0 -6 -11 -37 -23 -68 -38 -90 -58 -152 -67 -206 -5 -27 -14 -77 -19 -110 -6
-33 -11 -82 -11 -109 0 -27 -7 -72 -15 -100 -8 -28 -22 -81 -32 -117 -14 -55
-21 -66 -38 -66 -39 0 -200 -45 -225 -62 -35 -25 -176 -91 -194 -91 -8 0 -21
-6 -28 -14 -8 -7 -23 -16 -33 -20 -24 -7 -75 -53 -75 -67 0 -5 9 -17 20 -27
16 -13 42 -17 118 -18 156 -3 319 -14 437 -29 60 -8 120 -15 132 -15 27 0 39
23 78 155 51 169 151 429 209 545 7 14 33 68 57 120 51 110 110 212 126 217 6
2 39 -21 74 -52 127 -113 264 -170 409 -170 76 0 92 3 153 34 38 18 70 31 73
29 2 -3 -3 -22 -12 -44 -9 -21 -27 -82 -40 -134 -12 -52 -33 -122 -45 -155
-100 -276 -113 -317 -124 -378 -4 -27 -11 -37 -24 -37 -32 0 -40 -48 -19 -107
10 -29 9 -39 -10 -78 -12 -25 -22 -52 -22 -61 0 -8 -11 -42 -25 -75 -36 -84
-30 -95 53 -102 37 -3 92 -16 122 -28 89 -35 162 -59 178 -59 7 0 28 -6 45
-14 18 -8 59 -24 92 -35 98 -32 188 -66 213 -79 16 -10 27 -10 43 -2 25 14 20
49 -11 83 -11 11 -20 34 -20 51 0 46 -21 93 -46 105 -13 6 -37 37 -54 70 -31
62 -37 67 -155 128 -24 12 -46 27 -50 33 -3 5 0 34 9 63 44 150 135 513 171
682 50 232 119 450 153 489 10 10 43 36 74 57 184 122 307 257 411 451 50 93
67 192 67 394 l0 163 30 18 c22 13 30 25 30 46 0 24 -2 26 -19 17 -30 -15 -34
-13 -28 20 4 16 9 96 13 177 4 82 8 149 9 151 1 2 24 -2 49 -9 26 -6 66 -9 89
-6 23 4 89 13 147 21 58 9 150 16 205 16 83 0 103 -3 117 -17 9 -10 28 -27 42
-38 22 -17 23 -21 11 -45 -7 -14 -39 -48 -69 -77 -31 -29 -56 -56 -56 -60 0
-4 -23 -30 -51 -57 -27 -27 -53 -61 -56 -76 -4 -24 1 -32 40 -59 25 -17 48
-31 52 -31 3 0 16 -9 28 -21 18 -17 30 -20 67 -15 25 3 57 15 72 26 33 24 34
21 43 -90 6 -87 29 -170 62 -222 17 -28 44 -49 106 -80 118 -61 174 -81 204
-73 27 6 153 124 153 142 0 6 8 17 17 24 23 19 83 153 99 219 20 87 8 183 -32
257 -19 33 -49 74 -66 89 -43 35 -130 74 -171 75 -32 0 -32 0 -7 11 112 50
202 96 240 123 25 18 79 55 120 83 131 88 217 184 332 371 87 144 86 141 212
501 59 167 79 240 91 325 8 61 22 151 30 200 11 72 17 207 17 400 0 6 -3 31
-7 57 -9 55 -1 69 54 99 20 10 43 23 51 28 8 5 51 26 95 46 104 48 134 71 151
111 7 18 32 53 54 79 50 57 109 149 123 190 20 57 66 120 111 152 25 18 54 49
66 70 38 70 64 108 82 121 52 38 171 246 184 322 3 19 17 73 30 120 21 78 33
167 51 383 5 61 10 80 25 88 10 5 18 19 18 30 0 34 35 72 92 102 30 16 76 48
102 72 26 24 57 52 70 62 32 26 56 75 49 102 -7 28 -16 24 -45 -18 -13 -19
-48 -52 -78 -73 -30 -21 -60 -44 -65 -51 -6 -8 -21 -18 -35 -22 -14 -4 -33
-14 -42 -23 -17 -14 -18 -13 -18 9 0 14 4 29 9 35 5 5 29 47 53 94 50 97 122
216 148 245 26 28 90 152 90 173 -1 42 -16 38 -56 -17z m-4095 -747 c75 -19
141 -34 148 -34 45 0 179 -71 300 -159 23 -17 46 -31 51 -31 5 0 22 -17 38
-37 42 -55 66 -84 92 -109 27 -26 88 -163 97 -219 7 -46 8 -176 1 -183 -3 -2
-20 2 -38 11 -18 8 -78 34 -132 57 -55 23 -109 48 -121 56 -12 8 -61 28 -110
45 -49 16 -114 41 -144 54 -136 56 -340 116 -446 131 -60 8 -132 19 -160 24
-81 15 -304 50 -312 49 -4 -1 -25 -1 -45 0 -57 2 -66 28 -28 83 38 55 118 134
161 158 100 55 217 100 264 100 16 1 59 9 95 19 91 26 133 24 289 -15z m3730
-31 c-4 -26 -8 -80 -8 -120 -1 -40 -5 -94 -11 -120 -5 -26 -12 -61 -14 -78
-16 -90 -73 -268 -112 -346 -14 -27 -56 -87 -94 -133 -38 -46 -75 -98 -84
-114 -16 -31 -76 -97 -111 -122 -12 -8 -36 -42 -54 -75 -19 -33 -43 -75 -53
-94 -61 -107 -189 -279 -226 -302 -27 -18 -185 -79 -203 -79 -22 0 -5 38 47
108 31 41 69 102 85 136 16 33 45 88 64 121 19 33 57 101 84 150 28 50 81 129
119 175 37 47 81 108 96 135 16 28 60 92 97 142 38 51 69 96 69 100 0 5 16 35
36 68 20 33 77 139 127 235 49 96 93 179 98 185 5 5 9 15 9 22 0 19 31 64 40
58 4 -2 3 -26 -1 -52z m-4469 -362 c63 -5 153 -17 200 -26 47 -8 146 -24 220
-35 130 -19 348 -78 417 -114 18 -9 83 -34 145 -55 185 -64 431 -176 718 -328
93 -49 176 -112 206 -157 29 -43 88 -231 78 -248 -9 -15 -190 -1 -289 21 -44
11 -107 24 -140 31 -59 12 -126 29 -280 70 -127 34 -348 83 -455 101 -86 14
-156 33 -205 53 -35 15 -235 67 -312 80 -15 3 -41 12 -58 20 -151 73 -194 84
-330 85 -50 1 -106 6 -125 12 -19 6 -60 14 -90 19 -120 17 -434 94 -456 112
-6 4 -45 20 -85 34 -41 13 -80 27 -88 30 -19 6 20 48 75 80 40 23 264 112 352
139 24 7 54 21 68 30 14 9 54 22 89 30 34 7 71 18 81 23 20 11 65 10 264 -7z
m-222 -540 c17 -5 85 -12 149 -16 86 -5 130 -12 163 -27 77 -34 181 -68 295
-94 61 -14 157 -41 215 -61 58 -19 139 -41 180 -49 234 -41 794 -175 814 -194
9 -9 -25 -46 -89 -95 -50 -38 -275 -152 -339 -172 -27 -8 -73 -25 -101 -38
-29 -14 -72 -29 -96 -34 -24 -6 -82 -26 -129 -46 -46 -19 -91 -35 -100 -35 -9
0 -21 -5 -27 -11 -15 -15 -111 -48 -139 -49 -12 0 -33 -9 -48 -21 -15 -11 -33
-18 -41 -15 -9 3 -27 1 -42 -5 -43 -16 -137 -24 -268 -22 -258 4 -327 3 -346
-8 -11 -6 -56 -12 -100 -14 l-80 -4 -19 42 c-11 23 -20 51 -20 62 -1 11 -7 38
-16 60 -8 22 -18 81 -23 132 -8 79 -7 101 9 154 11 34 26 100 35 148 9 47 27
122 40 166 13 44 26 97 29 117 12 68 37 138 49 138 7 0 27 -4 45 -9z m1758
-729 c-62 -217 -131 -412 -175 -497 -42 -81 -122 -169 -276 -304 -60 -52 -112
-98 -115 -101 -17 -19 -99 -80 -107 -80 -5 0 -36 -16 -69 -36 -106 -66 -149
-83 -236 -93 -128 -15 -154 -13 -288 30 -116 37 -132 45 -202 104 -85 72 -101
95 -63 95 14 0 25 4 25 8 0 13 -32 39 -61 51 -29 11 -93 95 -140 186 -17 33
-46 81 -65 107 -18 25 -46 78 -63 117 l-29 70 36 6 c114 19 281 31 322 23 64
-13 328 -1 402 18 84 21 259 79 294 97 16 8 105 40 199 72 93 31 174 60 180
64 5 4 35 16 65 25 91 29 312 142 360 184 28 25 46 35 48 27 2 -7 -17 -85 -42
-173z m1872 -133 c2 -13 6 -97 9 -186 4 -126 1 -180 -11 -241 -9 -43 -16 -97
-16 -118 0 -21 -5 -59 -11 -83 -5 -23 -14 -68 -18 -100 -9 -56 -58 -208 -81
-252 -7 -12 -18 -45 -26 -73 -14 -57 -99 -267 -123 -307 -9 -14 -37 -62 -64
-106 -55 -93 -181 -242 -232 -273 -20 -12 -41 -27 -48 -33 -14 -13 -15 -14
-93 -64 -27 -17 -60 -40 -75 -51 -61 -48 -291 -143 -307 -128 -3 4 4 16 15 29
11 12 33 42 49 67 16 25 42 62 59 82 63 77 75 97 81 137 6 36 4 41 -13 41 -10
0 -24 -5 -31 -12 -26 -26 -11 15 22 61 18 25 43 65 55 89 12 23 55 93 96 154
76 113 170 293 200 383 40 120 242 525 302 605 79 106 116 168 176 293 56 117
78 139 85 86z m-3436 -824 c68 -77 158 -134 281 -177 100 -35 122 -39 206 -39
51 1 116 4 145 7 49 6 164 58 215 96 24 18 24 18 51 -14 l27 -32 -26 -47 c-14
-26 -54 -89 -88 -140 -35 -51 -63 -99 -63 -107 0 -7 -13 -32 -29 -55 -16 -23
-64 -103 -106 -177 -43 -74 -83 -142 -90 -150 -7 -8 -25 -44 -41 -80 -29 -68
-66 -131 -95 -165 -10 -11 -39 -60 -65 -110 -26 -49 -52 -97 -59 -105 -7 -8
-15 -23 -18 -32 -4 -10 -23 -44 -43 -75 -32 -50 -38 -55 -44 -38 -12 32 -30
161 -30 213 0 48 -24 220 -41 282 -10 40 -57 228 -69 280 -5 19 -15 55 -24 80
-8 25 -22 72 -31 105 -15 54 -67 162 -85 175 -3 3 -21 32 -40 65 -18 33 -44
70 -56 83 l-23 23 72 72 c60 61 110 103 126 106 2 1 21 -19 43 -44z m-207
-292 c20 -33 49 -77 65 -98 29 -37 77 -167 79 -218 0 -15 6 -37 12 -49 46 -86
128 -497 121 -608 -2 -25 4 -67 12 -95 42 -139 56 -285 37 -382 -4 -23 -4 -46
0 -50 5 -5 4 -49 -2 -98 -6 -50 -10 -109 -10 -132 l-1 -43 -151 0 c-128 1
-279 14 -387 35 -14 2 -55 7 -93 9 -59 5 -239 29 -305 42 -16 3 -22 11 -20 23
2 10 -5 27 -14 38 -19 21 -38 158 -32 243 2 30 6 104 10 165 3 60 10 116 16
123 7 8 43 12 107 13 115 1 170 18 241 74 76 60 110 123 159 290 37 126 44
211 27 317 -24 145 -33 166 -92 228 l-54 57 37 57 c21 31 65 83 97 116 l60 61
23 -28 c13 -15 39 -56 58 -90z m1237 34 c25 -29 60 -79 78 -112 18 -33 38 -67
45 -75 13 -18 85 -185 85 -198 0 -11 -34 -22 -66 -22 -12 0 -45 -8 -74 -17
-44 -14 -64 -30 -135 -109 -46 -51 -91 -106 -100 -123 -18 -36 -20 -215 -4
-321 6 -36 11 -102 12 -148 l2 -82 -33 -11 c-18 -6 -44 -22 -58 -36 -29 -29
-102 -43 -232 -45 -48 -1 -93 -5 -99 -11 -15 -11 -18 -57 -4 -57 17 0 49 -84
55 -144 4 -33 1 -85 -5 -119 -11 -54 -10 -61 5 -73 14 -10 24 -10 54 3 28 12
64 14 155 11 143 -5 139 -9 157 135 13 107 12 175 -3 195 -7 9 -4 19 10 35 30
32 45 66 39 84 -3 8 -3 13 1 11 5 -1 42 -19 83 -40 99 -48 177 -65 229 -50 69
21 66 27 63 -130 -3 -158 -22 -282 -50 -337 -17 -32 -23 -36 -63 -38 -24 -1
-72 -7 -106 -14 -36 -6 -97 -8 -147 -4 -48 3 -176 8 -286 10 -110 2 -203 6
-207 8 -17 11 -92 18 -173 18 l-85 0 3 221 c2 187 5 224 18 239 9 10 14 25 11
33 -3 7 3 31 13 52 10 22 26 57 36 79 9 22 23 47 30 55 6 8 35 60 64 115 28
55 58 107 66 116 8 8 14 20 14 25 0 6 12 26 26 45 14 19 38 59 53 89 59 118
144 276 156 290 7 8 25 38 39 65 15 28 42 75 61 105 19 30 44 73 56 95 12 22
34 58 49 80 15 22 44 66 64 98 20 31 39 57 44 57 4 0 29 -24 54 -53z m-1490
-242 c68 -79 97 -273 63 -428 -45 -209 -79 -275 -177 -343 -57 -40 -205 -61
-232 -33 -6 5 -18 9 -28 9 -10 0 -18 4 -18 9 0 5 20 60 45 122 25 62 51 133
57 158 6 25 30 91 54 146 23 56 45 115 49 133 8 40 23 49 40 26 18 -26 81 -58
99 -51 28 11 17 37 -34 84 l-49 45 26 52 c54 106 67 115 105 71z m1745 -281
c21 -82 37 -244 25 -256 -7 -7 -25 -7 -59 0 -108 24 -119 23 -143 -10 -15 -20
-20 -37 -16 -54 6 -21 11 -24 39 -20 73 11 155 16 170 10 15 -5 17 -23 17
-120 0 -115 -16 -262 -30 -278 -5 -4 -42 -10 -83 -13 -92 -6 -192 23 -244 71
-30 29 -34 37 -42 121 -6 50 -13 144 -16 210 -7 133 5 186 49 234 14 14 41 45
61 68 51 58 93 82 162 91 81 11 95 4 110 -54z m1247 -528 c47 -20 104 -73 129
-120 17 -34 21 -59 21 -146 1 -99 -1 -109 -32 -170 -55 -110 -71 -133 -123
-182 -64 -61 -87 -61 -202 -4 -146 72 -172 123 -172 336 l0 135 46 60 c41 53
54 63 110 82 75 25 175 29 223 9z m-1778 -296 c8 0 14 -7 14 -15 0 -8 -4 -15
-10 -15 -5 0 -10 -6 -10 -13 0 -19 -58 -97 -71 -97 -17 0 -124 109 -115 117 3
4 28 8 55 10 26 1 59 7 72 12 13 5 30 8 37 5 8 -2 20 -4 28 -4z m59 -122 c2
-13 -1 -52 -8 -88 l-12 -65 -118 -3 -117 -3 0 77 0 78 45 -48 c39 -40 51 -47
77 -44 26 2 39 14 71 61 22 31 44 57 48 57 5 0 11 -10 14 -22z m-1754 -119
l15 -101 -23 -9 c-13 -5 -23 -13 -23 -18 0 -5 -11 -12 -25 -15 -15 -4 -53 -20
-86 -36 -33 -16 -77 -34 -97 -41 -20 -7 -53 -22 -72 -34 -54 -34 -216 -115
-229 -115 -7 0 -32 -13 -56 -30 -24 -16 -47 -30 -52 -30 -5 0 -25 -9 -45 -20
l-37 -20 -34 43 c-19 23 -42 56 -50 73 -19 37 -13 45 58 81 87 44 163 90 216
130 37 29 76 48 120 59 66 16 302 125 315 145 7 12 61 38 80 39 6 0 17 -44 25
-101z m187 -225 c15 -3 36 -5 47 -4 57 6 223 -5 295 -20 107 -22 271 -32 505
-29 156 2 280 -2 330 -9 44 -7 168 -14 275 -17 107 -2 217 -7 245 -10 27 -3
92 -1 144 5 51 6 96 8 98 6 10 -10 -123 -181 -193 -248 -22 -20 -93 -75 -159
-122 -66 -47 -130 -95 -143 -105 -13 -12 -30 -17 -39 -14 -12 5 -15 2 -10 -9
4 -12 -21 -37 -94 -92 -55 -42 -107 -76 -117 -76 -9 0 -30 -13 -45 -29 -15
-16 -44 -35 -65 -41 -20 -7 -52 -21 -70 -31 -113 -65 -364 3 -504 134 -30 29
-88 74 -129 102 -79 53 -229 192 -229 212 0 7 -9 17 -19 22 -44 24 -201 326
-201 388 0 9 6 10 25 3 14 -5 38 -12 53 -16z m177 -525 c28 -28 74 -69 103
-91 61 -45 61 -44 1 -147 -21 -38 -47 -92 -58 -122 -10 -30 -33 -83 -51 -119
-40 -80 -83 -182 -116 -275 -37 -105 -61 -153 -81 -157 -25 -6 -70 8 -89 27
-17 16 -13 55 18 195 5 25 12 65 14 90 13 125 39 261 60 312 13 32 24 65 24
74 0 9 9 33 19 53 10 20 29 68 41 106 40 126 44 127 115 54z m1230 -146 c-14
-71 -54 -244 -87 -378 -43 -178 -41 -169 -62 -245 -37 -138 -54 -208 -61 -245
-3 -22 -18 -78 -32 -123 -20 -68 -28 -83 -41 -78 -10 3 -55 18 -102 34 l-85
29 2 54 c1 30 12 79 23 109 12 30 25 69 30 85 4 17 36 110 69 208 34 98 61
185 61 192 0 8 18 62 41 120 30 78 48 110 67 123 15 9 46 35 70 57 44 40 92
75 104 75 3 0 5 -8 3 -17z m-1492 -809 c26 -3 50 -10 52 -14 5 -8 -10 -54 -43
-134 l-16 -39 -96 7 c-52 4 -120 10 -150 12 -30 2 -104 8 -165 12 -76 6 -104
11 -90 17 11 5 34 18 50 30 17 12 45 30 63 39 17 9 45 23 61 31 39 21 179 47
213 41 15 -3 30 -1 33 5 4 5 14 8 23 5 10 -3 38 -8 65 -12z m1082 -291 c22 -4
58 -16 81 -28 37 -19 40 -24 31 -46 -5 -13 -13 -52 -18 -85 -5 -34 -13 -73
-18 -87 -10 -26 -11 -26 -48 -13 -92 32 -173 75 -173 91 0 9 14 47 30 85 17
38 30 76 30 85 0 13 5 16 23 11 12 -4 40 -10 62 -13z m320 -171 c27 -22 66
-103 82 -169 3 -13 9 -23 13 -23 4 0 11 -7 14 -16 5 -13 1 -15 -21 -9 -15 3
-50 17 -78 30 -46 21 -74 32 -162 65 -36 14 -38 17 -23 56 6 14 13 51 15 81 3
30 7 59 10 64 7 10 104 -42 150 -79z"/>
<path d="M6180 5550 c-8 -6 -34 -15 -57 -21 -49 -13 -68 -32 -77 -75 -10 -47
15 -68 73 -61 34 4 51 12 69 34 12 15 31 38 41 50 39 47 36 78 -7 81 -15 1
-34 -3 -42 -8z"/>
<path d="M5278 5044 c-3 -2 -36 -5 -74 -5 -76 -1 -94 -10 -94 -45 0 -26 65
-74 156 -115 27 -12 58 -26 69 -32 62 -33 80 -39 141 -49 58 -9 74 -7 136 13
83 26 117 53 120 92 2 19 13 36 31 49 22 16 27 27 25 51 -3 34 -24 45 -56 31
-18 -8 -247 -5 -291 3 -39 7 -158 12 -163 7z m291 -75 c41 0 78 -2 83 -5 17
-11 -31 -81 -67 -98 -57 -27 -101 -17 -294 71 -78 35 -54 46 89 38 63 -3 148
-6 189 -6z"/>
<path d="M4483 3177 c-6 -6 -15 -30 -21 -52 -15 -58 -48 -141 -71 -180 -11
-19 -23 -49 -26 -67 -10 -61 -3 -63 177 -63 117 0 173 -4 200 -14 29 -12 40
-12 52 -2 8 7 13 18 10 25 -3 7 2 78 11 156 8 79 13 151 10 160 -8 24 -52 41
-101 39 -21 -1 -82 1 -135 5 -72 4 -99 3 -106 -7z m177 -64 c0 -8 -65 -63 -73
-63 -8 0 -18 51 -12 60 7 12 85 14 85 3z m92 -130 c-6 -10 -8 -37 -5 -60 l5
-42 -146 1 c-80 1 -151 5 -157 9 -13 8 16 109 32 109 5 0 9 9 9 19 0 30 17 34
31 9 16 -32 50 -68 64 -68 6 0 32 20 58 44 26 24 62 51 80 59 l32 16 3 -39 c2
-22 -1 -47 -6 -57z"/>
<path d="M7363 3162 c-43 -27 -48 -134 -7 -140 30 -4 77 88 64 124 -9 24 -34
31 -57 16z"/>
</g>
</svg>
