<?xml version="1.0" standalone="no"?>
<!DOCTYPE svg PUBLIC "-//W3C//DTD SVG 20010904//EN"
 "http://www.w3.org/TR/2001/REC-SVG-20010904/DTD/svg10.dtd">
<svg version="1.0" xmlns="http://www.w3.org/2000/svg"
 width="940.000000pt" height="676.000000pt" viewBox="0 0 940.000000 676.000000"
 preserveAspectRatio="xMidYMid meet">

<g transform="translate(0.000000,676.000000) scale(0.100000,-0.100000)"
fill="#000000" stroke="none">
<path d="M6859 6224 c15 -7 -70 -44 -101 -44 -10 0 -18 -4 -18 -10 0 -5 -8
-10 -18 -10 -11 0 -27 -9 -37 -20 -10 -11 -26 -20 -35 -20 -32 0 -146 -44
-190 -73 -47 -32 -72 -52 -180 -146 -84 -73 -100 -89 -100 -99 0 -5 -10 -13
-22 -19 -13 -6 -43 -27 -68 -47 -25 -21 -60 -49 -78 -64 -119 -97 -162 -146
-210 -242 -57 -112 -78 -139 -144 -181 -47 -31 -48 -31 -184 -30 -75 1 -141 4
-147 8 -5 3 -23 6 -38 5 -16 0 -31 4 -34 9 -4 5 -13 9 -21 9 -8 0 -70 27 -137
61 -158 79 -303 131 -397 143 -14 2 -98 30 -118 39 -12 6 -21 16 -18 23 3 7
-2 15 -10 18 -15 6 -20 -19 -5 -28 5 -3 7 -14 4 -24 -7 -28 17 -41 96 -52 40
-6 94 -17 119 -24 26 -8 74 -23 107 -32 33 -10 89 -33 125 -51 35 -18 76 -35
90 -38 23 -5 25 -10 27 -66 2 -42 10 -72 27 -102 68 -119 120 -284 131 -421 4
-44 14 -105 22 -135 27 -100 16 -436 -19 -551 -5 -19 -21 -58 -34 -87 -13 -28
-24 -59 -24 -68 0 -8 -4 -23 -9 -33 -10 -18 -30 -72 -88 -237 -58 -166 -205
-453 -257 -500 -6 -5 -46 -54 -89 -107 -73 -92 -122 -138 -146 -138 -6 0 -11
-6 -11 -12 0 -7 -21 -25 -45 -40 -50 -30 -62 -61 -19 -49 40 10 229 183 292
266 12 17 44 59 71 95 56 74 169 287 201 375 12 33 25 68 31 77 5 10 9 24 9
31 0 14 59 183 85 242 7 17 21 53 30 80 10 28 22 55 26 60 12 16 37 134 43
208 12 123 8 290 -10 382 -9 50 -18 113 -20 140 -3 28 -6 66 -8 85 -9 76 -58
220 -116 335 -33 67 -60 124 -60 128 0 15 31 5 90 -28 l62 -35 171 1 c180 2
204 7 235 51 7 10 19 18 27 18 22 0 82 78 106 138 30 76 65 130 103 161 17 14
40 35 51 46 12 11 33 28 48 38 15 10 37 33 50 52 12 19 27 33 34 30 10 -3 48
26 134 105 9 8 29 24 45 35 46 32 64 54 64 75 0 11 7 20 15 20 9 0 26 11 39
24 45 49 272 144 369 155 4 1 7 7 7 14 0 17 61 39 119 42 26 1 56 5 66 8 11 4
28 0 37 -7 15 -11 16 -18 6 -52 -6 -21 -11 -44 -10 -51 2 -6 -2 -14 -8 -18 -5
-3 -10 -19 -10 -34 0 -16 -6 -34 -14 -40 -16 -13 -47 -96 -39 -104 2 -3 6 -89
9 -190 3 -162 1 -193 -15 -240 -11 -30 -27 -67 -36 -81 -29 -44 -5 -170 34
-178 9 -2 41 2 71 9 30 7 91 13 135 13 80 0 151 13 275 49 98 28 196 50 280
61 41 6 101 17 135 24 33 8 92 14 130 15 39 0 95 4 125 8 30 4 59 6 64 4 5 -1
50 3 100 8 50 6 145 13 211 16 66 3 140 8 165 10 81 8 313 4 332 -6 11 -6 41
-6 80 0 35 5 91 9 125 9 35 1 71 3 82 7 11 3 25 -1 34 -10 21 -20 63 -19 71 2
14 34 2 36 -249 34 -82 -1 -166 3 -187 8 -74 18 -519 -4 -552 -27 -6 -4 -27
-6 -46 -5 -89 6 -153 2 -180 -12 -18 -9 -31 -11 -35 -5 -8 13 -105 13 -197 0
-183 -27 -542 -99 -566 -114 -39 -24 -361 -50 -390 -32 -20 12 -13 75 16 134
27 57 27 57 28 292 1 229 2 237 28 305 14 38 26 78 26 88 0 10 16 35 35 55 59
62 49 73 -69 78 -44 1 -97 5 -116 8 -19 3 -29 3 -21 0z m1801 -784 c0 -5 -4
-10 -10 -10 -5 0 -10 5 -10 10 0 6 5 10 10 10 6 0 10 -4 10 -10z"/>
<path d="M1015 5835 c-27 -13 -136 -18 -291 -15 -43 1 -59 -15 -48 -44 3 -7
-2 -38 -10 -67 -30 -109 -46 -262 -38 -376 11 -171 7 -348 -11 -473 -10 -63
-22 -182 -27 -265 -5 -82 -15 -199 -21 -258 -8 -71 -9 -153 -4 -235 4 -70 7
-158 7 -197 -1 -80 -19 -292 -26 -303 -2 -4 -7 -33 -10 -65 -3 -31 -10 -65
-16 -77 -6 -11 -8 -30 -5 -42 2 -13 7 -59 9 -102 3 -46 10 -84 18 -92 10 -10
32 -11 93 -4 44 5 112 11 150 15 39 3 95 10 126 15 58 9 330 -2 362 -15 12 -5
15 -11 7 -20 -13 -15 -1 -28 15 -15 20 17 38 3 79 -63 43 -68 82 -114 108
-128 18 -10 38 -1 111 49 26 18 70 40 97 48 27 8 52 19 55 24 11 19 30 10 77
-35 26 -25 55 -45 63 -45 9 0 44 16 77 36 89 51 105 52 156 8 41 -35 45 -36
70 -23 15 8 32 19 37 25 6 5 28 23 49 39 37 27 39 27 52 10 22 -30 18 -55 -11
-55 -13 0 -29 -6 -34 -12 -6 -7 -22 -28 -37 -45 -14 -18 -29 -33 -33 -33 -5 0
-28 16 -52 35 -24 19 -55 35 -69 35 -23 -1 -60 -20 -60 -33 0 -3 -12 -18 -28
-34 -15 -15 -35 -39 -44 -53 l-17 -25 -48 52 -48 52 -70 -38 c-123 -67 -135
-76 -135 -94 0 -24 27 -33 48 -14 18 15 85 51 126 67 20 7 30 3 61 -24 l36
-33 -68 -11 c-37 -6 -95 -14 -128 -17 -66 -8 -85 -18 -85 -46 0 -27 33 -32
125 -18 99 14 269 -1 348 -32 26 -11 64 -19 85 -19 20 0 73 -8 117 -17 44 -9
118 -17 165 -18 105 -3 184 -12 275 -31 122 -26 188 -46 202 -59 7 -7 43 -16
80 -19 38 -3 97 -11 133 -17 36 -6 106 -14 155 -19 99 -10 123 -14 175 -29 89
-25 110 -29 185 -40 44 -6 111 -13 148 -16 71 -5 148 -23 158 -37 12 -17 204
-58 244 -52 22 3 105 7 185 9 80 2 156 6 170 8 71 14 234 26 300 23 49 -3 90
1 120 11 26 9 89 17 150 18 58 1 169 6 247 10 l141 7 51 -28 c57 -31 119 -95
202 -209 41 -56 89 -147 89 -168 0 -28 61 -97 103 -117 52 -25 227 -192 227
-218 0 -3 7 -13 16 -23 8 -9 16 -24 18 -32 1 -8 8 -21 16 -29 39 -38 84 -26
94 25 4 19 15 46 26 60 11 14 20 31 20 39 0 8 9 31 19 52 11 21 24 60 30 87 6
26 31 106 56 176 34 93 54 136 76 155 l29 28 148 -6 c81 -3 159 -6 175 -6 15
-1 27 -4 27 -8 0 -8 50 -20 83 -21 9 0 17 -4 17 -9 0 -5 12 -9 28 -8 15 0 43
-3 62 -7 19 -4 46 -9 60 -10 14 -1 34 -6 45 -11 27 -12 90 -10 210 4 131 16
495 3 538 -20 27 -14 157 -37 183 -32 13 2 24 -1 24 -7 0 -6 10 -9 22 -8 13 1
31 -2 41 -6 22 -9 31 -1 23 21 -4 11 -13 14 -27 11 -12 -3 -53 6 -93 20 -39
15 -97 28 -128 29 -32 1 -81 7 -110 13 -63 12 -61 12 -453 15 -245 2 -327 6
-389 19 -44 9 -82 15 -84 12 -3 -2 -21 3 -40 11 -20 8 -42 12 -49 9 -8 -2 -11
0 -8 5 4 6 -11 10 -37 11 -24 0 -52 2 -63 4 -11 2 -52 5 -92 8 -39 3 -77 8
-84 13 -8 4 -10 3 -5 -4 5 -8 -5 -12 -33 -12 -48 0 -81 -29 -81 -71 0 -15 -5
-31 -11 -35 -17 -10 -59 -111 -70 -167 -9 -48 -48 -147 -90 -228 -11 -20 -19
-42 -19 -48 0 -6 -10 -22 -21 -35 -20 -23 -22 -23 -38 -8 -9 9 -30 37 -45 62
-16 25 -35 49 -43 53 -7 4 -13 12 -13 16 0 15 -93 111 -108 111 -21 0 -83 39
-111 69 -12 14 -45 71 -71 126 -64 131 -90 169 -194 276 l-87 90 -152 -4
c-153 -4 -353 -19 -503 -37 -44 -6 -123 -10 -175 -10 -51 0 -131 -7 -175 -15
-48 -8 -163 -15 -275 -17 -180 -2 -199 0 -264 21 -38 13 -75 28 -81 32 -6 5
-85 20 -175 34 -90 14 -186 32 -214 39 -111 31 -232 49 -402 61 -35 2 -78 12
-100 24 -37 19 -79 30 -298 71 -178 35 -297 52 -342 50 -24 0 -60 4 -80 9 -21
5 -83 15 -138 21 -55 6 -120 17 -145 24 -40 12 -42 14 -20 19 14 3 46 8 73 11
26 3 69 15 95 27 26 12 88 34 138 50 80 24 97 33 149 82 32 31 67 57 78 59 46
7 47 71 1 74 -10 1 -39 9 -64 19 -25 9 -66 20 -91 25 -25 4 -62 18 -83 29 -21
12 -45 19 -54 17 -19 -6 -206 9 -238 19 -13 4 -27 1 -36 -8 -8 -8 -39 -18 -69
-22 -153 -19 -161 -30 -16 -21 132 7 135 -2 24 -57 -93 -47 -118 -44 -147 12
-11 22 -15 41 -10 43 6 2 6 9 0 18 -7 11 -35 15 -116 17 -59 2 -125 8 -147 14
-40 11 -97 4 -97 -11 0 -5 15 -11 33 -14 84 -13 156 -19 195 -18 24 1 51 -2
60 -7 14 -8 5 -15 -48 -39 -36 -16 -78 -32 -93 -36 -20 -5 -27 -12 -23 -21 9
-25 -34 -56 -73 -53 -32 3 -41 12 -93 88 l-59 85 46 3 c31 2 45 8 45 18 0 7
-2 14 -4 14 -2 0 -70 7 -152 16 -129 14 -235 23 -269 24 -51 2 -180 -12 -190
-20 -6 -5 -47 -10 -91 -11 -43 -1 -93 -1 -111 -2 -44 -1 -63 18 -63 63 0 22
-5 40 -12 43 -10 3 -9 9 3 23 12 13 19 49 24 123 4 58 11 115 15 127 11 28 13
316 4 496 -4 89 -3 153 4 180 10 41 17 120 27 323 3 50 9 108 14 130 10 41 31
215 33 270 0 17 -3 113 -7 215 -7 165 -5 199 14 314 12 71 28 141 36 156 14
28 17 28 132 35 65 3 145 10 178 14 44 6 65 5 80 -5 11 -7 61 -20 110 -29 50
-9 131 -24 180 -35 94 -19 153 -28 245 -36 30 -2 66 -7 80 -10 14 -4 81 -10
150 -14 69 -5 167 -15 218 -24 50 -8 152 -18 224 -21 108 -5 160 -13 284 -45
84 -22 181 -50 216 -63 90 -35 244 -78 308 -87 30 -5 91 -15 135 -24 44 -8
126 -15 182 -16 98 0 102 -1 122 -26 12 -15 21 -35 21 -45 0 -11 5 -19 11 -19
7 0 8 7 4 18 -19 45 -17 48 37 64 29 9 69 19 88 23 95 18 248 96 367 187 35
26 79 51 98 57 60 16 208 -12 282 -55 25 -15 35 -16 44 -7 15 15 5 42 -18 49
-10 3 -31 12 -48 20 -56 25 -187 47 -252 41 -55 -4 -65 -8 -90 -37 -43 -52
-271 -189 -315 -190 -7 0 -21 -7 -30 -14 -14 -10 -66 -12 -225 -10 -115 1
-232 5 -262 9 -93 10 -331 68 -450 110 -41 14 -115 35 -165 46 -50 12 -122 29
-161 40 -45 12 -121 20 -210 24 -77 3 -151 7 -165 10 -86 18 -212 35 -220 30
-5 -3 -40 0 -77 6 -37 6 -111 15 -163 19 -85 8 -329 52 -348 63 -4 3 -35 8
-70 11 -34 4 -92 18 -128 31 -37 14 -67 25 -68 24 0 0 -14 -7 -31 -14z m1240
-2642 c15 -9 9 -14 -36 -37 -66 -33 -81 -33 -105 0 -10 14 -26 33 -34 42 -13
14 -6 15 72 10 47 -3 93 -10 103 -15z m144 -32 c16 -10 6 -31 -15 -31 -8 0
-14 2 -14 4 0 2 -3 11 -6 20 -7 18 12 21 35 7z m67 -36 c3 -20 -21 -55 -38
-55 -11 0 -10 37 3 61 12 24 31 21 35 -6z m-122 -111 c27 -10 18 -21 -33 -38
-68 -22 -72 -20 -31 14 37 32 40 33 64 24z m-201 -26 c18 -12 38 -28 45 -35 7
-7 19 -13 25 -13 38 -2 -63 -29 -127 -35 -81 -8 -87 -4 -63 38 39 70 69 81
120 45z"/>
<path d="M4033 5388 c-52 -58 -81 -138 -48 -138 18 0 95 70 95 86 0 7 7 15 16
18 9 3 14 15 12 28 -4 33 -47 36 -75 6z"/>
<path d="M4705 5290 c-7 -11 14 -42 43 -65 7 -6 14 -22 16 -35 1 -14 9 -38 16
-55 8 -16 14 -34 15 -40 0 -5 7 -21 14 -33 7 -13 10 -26 7 -29 -3 -3 1 -18 9
-32 21 -40 46 -155 57 -266 13 -138 19 -565 7 -587 -5 -9 -11 -45 -14 -80 -4
-60 -16 -153 -35 -263 -8 -44 -33 -148 -56 -225 -4 -14 -10 -29 -14 -35 -5 -5
-13 -30 -20 -55 -6 -25 -39 -101 -72 -169 -60 -123 -99 -174 -160 -207 -16 -8
-28 -23 -28 -34 0 -11 -6 -29 -12 -40 -9 -13 -9 -23 -2 -30 7 -7 17 2 33 30
13 24 30 40 41 40 10 0 34 18 53 40 37 44 151 269 187 370 13 36 26 70 30 75
14 20 60 232 75 350 9 66 20 152 26 190 14 100 9 560 -8 670 -17 111 -36 175
-108 360 -50 126 -85 180 -100 155z"/>
<path d="M3637 5223 c-4 -3 -7 -19 -7 -35 0 -25 3 -28 35 -28 48 0 95 -21 130
-58 38 -40 70 -47 125 -26 30 10 86 17 162 19 112 3 119 2 143 -21 14 -13 32
-24 40 -24 24 0 27 18 4 30 -13 8 -19 18 -16 30 7 28 -18 45 -46 33 -12 -6
-52 -8 -88 -6 -40 3 -88 -1 -122 -10 -73 -19 -142 -12 -188 19 -19 13 -38 24
-42 24 -3 0 -29 14 -57 30 -53 31 -62 34 -73 23z"/>
<path d="M5544 5025 c-8 -19 -4 -36 41 -165 89 -259 145 -533 146 -714 0 -61
0 -113 -1 -116 -1 -3 -3 -27 -6 -55 -7 -93 -60 -391 -89 -498 -8 -32 -15 -66
-15 -77 0 -10 -16 -46 -36 -79 -20 -34 -34 -68 -30 -76 3 -8 1 -15 -3 -15 -5
0 -14 -13 -20 -30 -5 -16 -15 -30 -21 -30 -6 0 -16 -12 -23 -27 -6 -16 -20
-34 -29 -41 -10 -7 -18 -20 -18 -28 0 -8 -4 -14 -9 -14 -6 0 -59 -45 -118
-100 -230 -212 -230 -212 -323 -238 -66 -18 -160 -22 -192 -8 -25 11 -48 0
-48 -22 0 -31 65 -42 177 -31 136 14 178 31 245 97 32 32 109 104 171 162 63
58 120 116 128 130 8 14 28 43 44 65 32 43 41 61 99 189 71 155 156 592 157
806 0 82 -21 272 -37 321 -2 9 -7 34 -9 54 -3 21 -14 72 -25 114 -12 42 -30
110 -41 151 -10 41 -33 118 -50 170 -18 52 -33 101 -35 108 -5 17 -23 15 -30
-3z"/>
<path d="M1718 2673 c6 -2 18 -2 25 0 6 3 1 5 -13 5 -14 0 -19 -2 -12 -5z"/>
<path d="M8846 2149 c-16 -5 -33 -6 -37 -3 -5 3 -18 0 -30 -7 -24 -13 -329
-19 -329 -6 0 4 -7 7 -16 7 -14 0 -15 -2 -3 -17 13 -16 12 -17 -3 -5 -30 24
-89 33 -105 16 -9 -9 -10 -14 -3 -14 6 0 8 -4 5 -10 -4 -6 13 -10 42 -11 26 0
59 -2 73 -4 69 -10 277 -6 305 5 33 14 423 18 447 5 7 -4 0 5 -17 21 -29 28
-32 29 -137 29 -60 0 -108 -3 -108 -7 0 -11 -48 -10 -52 0 -1 5 -16 5 -32 1z"/>
<path d="M4604 1199 c-58 -10 -109 -27 -102 -35 5 -4 103 12 213 35 l40 9 -50
0 c-27 0 -73 -4 -101 -9z"/>
</g>
</svg>
